HIERARCHY
ROOT Hips
{
	OFFSET 0.000000 0.000000 0.990480
	CHANNELS 6 Xposition Yposition Zposition Xrotation Yrotation Zrotation
	JOINT Spine
	{
		OFFSET 0.000000 0.000000 0.099820
		CHANNELS 6 Xposition Yposition Zposition Xrotation Yrotation Zrotation
		JOINT Chest
		{
			OFFSET 0.000000 0.000000 0.152175
			CHANNELS 6 Xposition Yposition Zposition Xrotation Yrotation Zrotation
			JOINT Neck
			{
				OFFSET 0.000000 0.000000 0.337083
				CHANNELS 6 Xposition Yposition Zposition Xrotation Yrotation Zrotation
				JOINT Head
				{
					OFFSET 0.000000 0.000000 0.150550
					CHANNELS 3 Xrotation Yrotation Zrotation
					End Site
					{
						OFFSET 0.000000 0.000000 0.164719
					}
				}
			}
			JOINT RightShoulder
			{
				OFFSET -0.043277 0.000000 0.228616
				CHANNELS 6 Xposition Yposition Zposition Xrotation Yrotation Zrotation
				JOINT RightArm
				{
					OFFSET -0.105461 0.000000 0.000004
					CHANNELS 6 Xposition Yposition Zposition Xrotation Yrotation Zrotation
					JOINT RightForeArm
					{
						OFFSET -0.247377 0.000000 0.000009
						CHANNELS 6 Xposition Yposition Zposition Xrotation Yrotation Zrotation
						JOINT RightHand
						{
							OFFSET -0.262149 0.000000 0.000009
							CHANNELS 6 Xposition Yposition Zposition Xrotation Yrotation Zrotation
							JOINT RightHandIndex1
							{
								OFFSET -0.082535 -0.029415 0.000003
								CHANNELS 3 Xrotation Yrotation Zrotation
								JOINT RightHandIndex2
								{
									OFFSET -0.033301 -0.004409 0.000001
									CHANNELS 3 Xrotation Yrotation Zrotation
									End Site
									{
										OFFSET -0.025492 -0.003784 0.000001
									}
								}
							}
							JOINT RightHandMiddle1
							{
								OFFSET -0.088557 -0.008155 0.000003
								CHANNELS 3 Xrotation Yrotation Zrotation
								JOINT RightHandMiddle2
								{
									OFFSET -0.034042 -0.001186 0.000001
									CHANNELS 3 Xrotation Yrotation Zrotation
									End Site
									{
										OFFSET -0.026773 -0.000599 0.000000
									}
								}
							}
							JOINT RightHandRing1
							{
								OFFSET -0.085632 0.009333 0.000003
								CHANNELS 3 Xrotation Yrotation Zrotation
								JOINT RightHandRing2
								{
									OFFSET -0.029113 0.002339 0.000001
									CHANNELS 3 Xrotation Yrotation Zrotation
									End Site
									{
										OFFSET -0.027037 0.001866 0.000001
									}
								}
							}
							JOINT RightHandPinky1
							{
								OFFSET -0.076599 0.027405 0.000003
								CHANNELS 3 Xrotation Yrotation Zrotation
								JOINT RightHandPinky2
								{
									OFFSET -0.032445 0.007645 0.000002
									CHANNELS 3 Xrotation Yrotation Zrotation
									End Site
									{
										OFFSET -0.019101 0.004136 0.000001
									}
								}
							}
							JOINT RightHandThumb1
							{
								OFFSET -0.018894 -0.029252 0.000001
								CHANNELS 3 Xrotation Yrotation Zrotation
								JOINT RightHandThumb2
								{
									OFFSET -0.024834 -0.023384 0.000001
									CHANNELS 3 Xrotation Yrotation Zrotation
									End Site
									{
										OFFSET -0.024730 -0.013883 0.000001
									}
								}
							}
						}
					}
				}
			}
			JOINT LeftShoulder
			{
				OFFSET 0.043336 0.000000 0.228616
				CHANNELS 6 Xposition Yposition Zposition Xrotation Yrotation Zrotation
				JOINT LeftArm
				{
					OFFSET 0.105402 0.000000 0.000018
					CHANNELS 6 Xposition Yposition Zposition Xrotation Yrotation Zrotation
					JOINT LeftForeArm
					{
						OFFSET 0.248086 -0.001017 0.000042
						CHANNELS 6 Xposition Yposition Zposition Xrotation Yrotation Zrotation
						JOINT LeftHand
						{
							OFFSET 0.262001 0.000000 0.000044
							CHANNELS 6 Xposition Yposition Zposition Xrotation Yrotation Zrotation
							JOINT LeftHandIndex1
							{
								OFFSET 0.082507 -0.030061 -0.000028
								CHANNELS 3 Xrotation Yrotation Zrotation
								JOINT LeftHandIndex2
								{
									OFFSET 0.033280 -0.004602 0.000048
									CHANNELS 3 Xrotation Yrotation Zrotation
									End Site
									{
										OFFSET 0.025464 -0.003944 0.000004
									}
								}
							}
							JOINT LeftHandMiddle1
							{
								OFFSET 0.088481 -0.008664 0.000015
								CHANNELS 3 Xrotation Yrotation Zrotation
								JOINT LeftHandMiddle2
								{
									OFFSET 0.034019 -0.001373 0.000006
									CHANNELS 3 Xrotation Yrotation Zrotation
									End Site
									{
										OFFSET 0.026769 -0.000745 0.000005
									}
								}
							}
							JOINT LeftHandRing1
							{
								OFFSET 0.085626 0.008930 0.000014
								CHANNELS 3 Xrotation Yrotation Zrotation
								JOINT LeftHandRing2
								{
									OFFSET 0.029129 0.002221 0.000005
									CHANNELS 3 Xrotation Yrotation Zrotation
									End Site
									{
										OFFSET 0.027049 0.001739 0.000005
									}
								}
							}
							JOINT LeftHandPinky1
							{
								OFFSET 0.076700 0.027168 0.000013
								CHANNELS 3 Xrotation Yrotation Zrotation
								JOINT LeftHandPinky2
								{
									OFFSET 0.032485 0.007539 0.000005
									CHANNELS 3 Xrotation Yrotation Zrotation
									End Site
									{
										OFFSET 0.019121 0.004064 0.000003
									}
								}
							}
							JOINT LeftHandThumb1
							{
								OFFSET 0.018711 -0.029540 0.000003
								CHANNELS 3 Xrotation Yrotation Zrotation
								JOINT LeftHandThumb2
								{
									OFFSET 0.024721 -0.023664 0.000004
									CHANNELS 3 Xrotation Yrotation Zrotation
									End Site
									{
										OFFSET 0.024649 -0.014096 0.000004
									}
								}
							}
						}
					}
				}
			}
		}
	}
	JOINT RightUpLeg
	{
		OFFSET -0.115000 0.000000 -0.015985
		CHANNELS 6 Xposition Yposition Zposition Xrotation Yrotation Zrotation
		JOINT RightLeg
		{
			OFFSET 0.000000 0.000000 -0.417140
			CHANNELS 6 Xposition Yposition Zposition Xrotation Yrotation Zrotation
			JOINT RightFoot
			{
				OFFSET 0.000000 0.000000 -0.438030
				CHANNELS 3 Xrotation Yrotation Zrotation
				JOINT RightToeBase
				{
					OFFSET 0.000000 -0.104620 -0.083528
					CHANNELS 6 Xposition Yposition Zposition Xrotation Yrotation Zrotation
					End Site
					{
						OFFSET 0.000000 -0.133871 -0.000951
					}
				}
			}
		}
	}
	JOINT LeftUpLeg
	{
		OFFSET 0.115000 0.000000 -0.015985
		CHANNELS 6 Xposition Yposition Zposition Xrotation Yrotation Zrotation
		JOINT LeftLeg
		{
			OFFSET 0.000000 0.000000 -0.417140
			CHANNELS 6 Xposition Yposition Zposition Xrotation Yrotation Zrotation
			JOINT LeftFoot
			{
				OFFSET 0.000000 0.000000 -0.438030
				CHANNELS 3 Xrotation Yrotation Zrotation
				JOINT LeftToeBase
				{
					OFFSET 0.000000 -0.104620 -0.083528
					CHANNELS 6 Xposition Yposition Zposition Xrotation Yrotation Zrotation
					End Site
					{
						OFFSET 0.000000 -0.133871 -0.000951
					}
				}
			}
		}
	}
}
MOTION
Frames: 9
Frame Time:	0.016667
-0.4321 0.2952 0.8992 -1.0567 2.3459 -52.8679 0 0 0.0999 -0.0871 0.3307 1.2477 0 0 0.1524 1.0152 0.334 1.3962 0 0 0.2939 9.466 -0.5881 1.7574 -14.8856 0.8902 1.8277 -0.0433 0 0.2419 -0.5313 -6.93 7.615 -0.1055 0 0 -8.5443 -15.4875 46.7961 -0.2477 0 -0.0001 -24.947 18.6371 89.5741 -0.2624 0 -0.0001 40.575 45.1082 -6.7168 5.7584 -48.6094 -9.6824 8.296 -62.7591 6.4953 2.0624 -38.6652 0.6006 -0.3075 -23.8485 -0.1556 0.8902 -23.7903 -10.6902 0.9546 -23.7601 0.4823 0.4 -24.6923 -11.5781 -2.7342 -20.4579 -0.2487 -5.427 -9.1014 9.3262 -0.0025 -0.0003 1.9678 0.0434 0 0.2289 -0.0006 13.8368 1.4188 0.1055 0 0 -13.776 58.0361 33.6428 0.2484 -0.001 0 0.4313 8.4022 -57.7446 0.2623 0 0 -37.9227 -17.4593 -10.725 5.9444 49.4028 9.9871 10.0121 64.8131 -7.9931 2.3857 40.401 -1.7122 -0.2717 27.8536 0.1452 -0.092 26.6298 7.4386 0.2847 28.2856 -0.2218 0.0111 24.4849 7.2142 -3.6625 23.6622 0.5974 -5.888 7.1213 6.7905 0.0004 0 -2.4788 -0.1151 0 -0.016 -7.4888 2.5366 -3.8205 0 0 -0.4175 46.067 -1.3169 0.5607 -35.8247 -1.0703 -1.8954 0 -0.1047 -0.0836 -0.0377 0.064 -0.0801 0.1151 0 -0.016 -36.3106 2.8425 0.1764 0 0 -0.4175 88.1707 -1.8345 1.7752 -13.9187 -1.1668 -0.8624 0 -0.1047 -0.0836 -35.3584 0.0968 -0.0295 
-0.4322 0.296 0.8984 -1.0283 2.3707 -52.7819 0 0 0.0999 -0.0856 0.3379 1.2388 0 0 0.1524 1.0359 0.3414 1.3859 0 0 0.2939 9.5107 -0.5622 1.7661 -14.9556 0.9225 1.8369 -0.0433 0 0.242 -0.5564 -6.7008 7.3821 -0.1055 0 0 -8.9951 -14.6951 46.6693 -0.2477 0 -0.0001 -25.4606 18.6813 90.2866 -0.2624 0 -0.0001 41.3086 45.6112 -4.4819 5.7905 -48.8865 -9.8069 8.7271 -63.4798 6.8797 2.1501 -39.2602 0.9642 -0.2777 -25.2221 -0.1432 0.5704 -24.7655 -9.7344 0.8507 -25.3107 0.4392 0.287 -24.6292 -10.1351 -2.9976 -21.5658 -0.3432 -4.1578 -9.8329 7.46 -0.0026 -0.0002 0.212 0.0434 0 0.2289 -0.0023 13.8368 1.4051 0.1055 0 0 -13.5183 58.1174 32.9123 0.2484 -0.001 0 0.273 8.2845 -57.2784 0.2623 0 0 -37.789 -17.595 -10.5343 5.9446 49.4042 9.9878 10.0149 64.8168 -7.9955 2.3863 40.4041 -1.7142 -0.2715 27.8609 0.1451 -0.0934 26.635 7.4332 0.2841 28.2938 -0.2215 0.0105 24.4846 7.2064 -3.6639 23.668 0.598 -5.888 7.1213 6.7905 0.0004 0 -2.4788 -0.1151 0 -0.016 -7.6363 2.4746 -3.8653 0 0 -0.4175 46.3369 -1.3682 0.5861 -35.9072 -0.9619 -1.9492 0 -0.1047 -0.0836 -0.0749 0.0486 -0.0607 0.1151 0 -0.016 -36.1606 1.6638 0.0828 0 0 -0.4175 87.0768 -1.0253 0.9645 -13.6225 -0.9866 -0.274 0 -0.1047 -0.0836 -34.7507 0.0914 -0.0258 
-0.4321 0.2962 0.8978 -1.0202 2.38 -52.7198 0 0 0.0999 -0.0844 0.3443 1.2236 0 0 0.1524 1.0493 0.3477 1.3685 0 0.0001 0.2938 9.5378 -0.5587 1.7859 -15.0005 0.9306 1.8571 -0.0433 0.0001 0.2421 -0.7359 -6.5072 7.0512 -0.1055 0 0 -9.3777 -13.9567 46.3965 -0.2477 0 -0.0001 -25.9593 18.8537 90.6342 -0.2624 0 -0.0001 41.819 46.0483 -2.8606 5.7992 -48.9628 -9.8414 8.85 -63.6788 6.9899 2.1753 -39.4248 1.066 -0.2694 -25.6007 -0.1396 0.4845 -25.0357 -9.4665 0.8215 -25.739 0.4266 0.2556 -24.6111 -9.7337 -3.071 -21.8715 -0.3704 -3.8093 -10.0433 6.9466 -0.0026 -0.0001 -0.2736 0.0434 0.0001 0.2289 -0.0045 13.8367 1.3881 0.1055 0 0 -13.3401 58.2256 32.3578 0.2484 -0.001 0 0.1702 8.2006 -56.8714 0.2623 0 0 -37.6687 -17.7572 -10.4963 5.9447 49.4052 9.9883 10.0168 64.8195 -7.9972 2.3867 40.4063 -1.7156 -0.2714 27.8659 0.145 -0.0944 26.6387 7.4295 0.2837 28.2995 -0.2214 0.0101 24.4843 7.201 -3.6649 23.6722 0.5984 -5.8881 7.1213 6.7905 0.0004 0 -2.4788 -0.1151 0 -0.016 -7.7361 2.4705 -3.8922 0 0 -0.4175 46.5269 -1.3995 0.602 -35.9591 -0.9088 -1.9972 0 -0.1047 -0.0836 -0.1087 0.03 -0.0375 0.1151 0 -0.016 -35.821 0.7794 0.0155 0 0 -0.4175 85.8674 -0.3938 0.3555 -13.4784 -0.8456 0.1733 0 -0.1047 -0.0836 -34.0433 0.0756 -0.0207 
-0.432 0.2963 0.8975 -1.0162 2.3846 -52.6888 0 0 0.0999 -0.0838 0.3475 1.216 0 0 0.1524 1.056 0.3509 1.3598 0 0.0001 0.2938 9.5514 -0.5569 1.7958 -15.0229 0.9347 1.8671 -0.0433 0.0001 0.2421 -0.8251 -6.41 6.886 -0.1055 0 0 -9.5678 -13.5871 46.2624 -0.2477 0 -0.0001 -26.2104 18.94 90.8053 -0.2624 0 -0.0001 42.0658 46.2782 -2.0462 5.7992 -48.9627 -9.8413 8.85 -63.6788 6.9899 2.1754 -39.4248 1.066 -0.2694 -25.6006 -0.1396 0.4845 -25.0357 -9.4665 0.8215 -25.739 0.4266 0.2556 -24.6111 -9.7337 -3.071 -21.8715 -0.3704 -3.8093 -10.0433 6.9467 -0.0026 -0.0001 -0.2736 0.0434 0.0001 0.2289 -0.0056 13.8367 1.3796 0.1055 0 0 -13.2499 58.2795 32.0795 0.2484 -0.001 0 0.1191 8.1586 -56.6679 0.2623 0 0 -37.6085 -17.8384 -10.4771 5.9447 49.4053 9.9882 10.0166 64.8195 -7.9972 2.3867 40.4063 -1.7156 -0.2714 27.8659 0.145 -0.0944 26.6387 7.4295 0.2837 28.2995 -0.2214 0.0101 24.4843 7.201 -3.6649 23.6722 0.5984 -5.888 7.1213 6.7905 0.0004 0 -2.4788 -0.1151 0 -0.016 -7.786 2.4686 -3.9057 0 0 -0.4175 46.6219 -1.4151 0.6099 -35.985 -0.8822 -2.0212 0 -0.1047 -0.0836 -0.1256 0.0207 -0.0259 0.1151 0 -0.016 -35.652 0.337 -0.0163 0 0 -0.4175 85.2688 -0.0675 0.0552 -13.4079 -0.7776 0.398 0 -0.1047 -0.0836 -33.6898 0.0627 -0.018 
-0.4323 0.2952 0.8973 -1.0505 2.3955 -52.6306 0 0 0.0999 -0.0867 0.3527 1.1867 0 -0.0001 0.1524 1.0513 0.3561 1.3268 0 0.0001 0.2938 9.536 -0.5806 1.8313 -15.05 0.9105 1.9031 -0.0433 0.0001 0.2423 -1.0957 -6.2416 6.3759 -0.1055 0 0 -9.9059 -12.8198 45.7077 -0.2477 0 -0.0001 -26.9248 19.3403 90.5658 -0.2624 0 -0.0001 42.1889 46.9826 -1.621 5.8206 -49.1521 -9.9271 9.1635 -64.173 7.2714 2.2402 -39.8339 1.3212 -0.2484 -26.5404 -0.1304 0.276 -25.7077 -8.7943 0.7481 -26.8033 0.3941 0.1771 -24.5658 -8.733 -3.2547 -22.6309 -0.4399 -2.847 -10.6565 5.6924 -0.0027 0 -1.4806 0.0434 0.0001 0.2289 -0.0079 13.8366 1.3619 0.1055 0 0 -13.233 58.4096 31.8826 0.2484 -0.001 0 0.0998 8.1509 -56.3373 0.2623 0 0 -37.5681 -17.842 -10.633 5.9451 49.4085 9.9897 10.0228 64.828 -8.0027 2.3879 40.4134 -1.7201 -0.2709 27.882 0.1448 -0.0976 26.6502 7.4176 0.2824 28.3178 -0.2208 0.0087 24.4835 7.1837 -3.6681 23.6852 0.5997 -5.8881 7.1213 6.7905 0.0004 0 -2.4788 -0.1151 0 -0.016 -7.6572 2.5418 -3.9297 0 0 -0.4175 46.6315 -1.4223 0.6131 -36.1543 -0.9112 -2.0606 0 -0.1047 -0.0836 -0.0593 0.0021 -0.0068 0.1151 0 -0.016 -34.2902 -0.5957 0.0126 0 0 -0.4175 82.4654 0.6242 -0.5586 -14.0393 -0.6525 0.9182 0 -0.1047 -0.0836 -31.5929 0.0519 -0.0083 
-0.4324 0.2946 0.8972 -1.0677 2.4009 -52.6015 0 0 0.0999 -0.0881 0.3552 1.172 0 -0.0001 0.1524 1.0489 0.3587 1.3102 0 0.0001 0.2938 9.5283 -0.5924 1.8491 -15.0635 0.8983 1.9211 -0.0433 0.0001 0.2423 -1.2305 -6.1564 6.1213 -0.1055 0 0 -10.0727 -12.4346 45.4338 -0.2477 0 -0.0001 -27.2773 19.5401 90.439 -0.2624 0 -0.0001 42.2553 47.3405 -1.4206 5.8205 -49.1521 -9.9271 9.1635 -64.173 7.2714 2.2402 -39.8339 1.3212 -0.2484 -26.5404 -0.1304 0.276 -25.7077 -8.7943 0.7481 -26.8033 0.3941 0.1771 -24.5658 -8.733 -3.2547 -22.6309 -0.4399 -2.8471 -10.6565 5.6924 -0.0027 0 -1.4806 0.0434 0.0001 0.2289 -0.009 13.8366 1.3531 0.1055 0 0 -13.2243 58.4747 31.7839 0.2484 -0.001 0 0.09 8.1472 -56.1719 0.2623 0 0 -37.5479 -17.8438 -10.7109 5.9451 49.4085 9.9897 10.0227 64.828 -8.0027 2.3879 40.4134 -1.7201 -0.2709 27.882 0.1448 -0.0975 26.6502 7.4176 0.2824 28.3178 -0.2208 0.0087 24.4835 7.1838 -3.6681 23.6852 0.5997 -5.888 7.1213 6.7906 0.0004 0 -2.4788 -0.1151 0 -0.016 -7.5927 2.5783 -3.9418 0 0 -0.4175 46.6363 -1.4259 0.6147 -36.2389 -0.9257 -2.0804 0 -0.1047 -0.0836 -0.0262 -0.0071 0.0027 0.1151 0 -0.016 -33.6092 -1.0621 0.0347 0 0 -0.4175 81.0708 0.9938 -0.8576 -14.3568 -0.5951 1.1777 0 -0.1047 -0.0836 -30.5446 0.0293 -0.0031 
-0.4323 0.2938 0.8972 -1.0876 2.3955 -52.5856 0 0 0.0999 -0.0893 0.3591 1.1496 0 -0.0001 0.1524 1.0441 0.3628 1.2849 0 0.0001 0.2938 9.5177 -0.6129 1.871 -15.0598 0.8735 1.9429 -0.0433 0.0001 0.2424 -1.4138 -6.0496 5.7694 -0.1055 0 0 -10.2664 -11.9737 45.0956 -0.2477 0 -0.0001 -27.7359 19.854 89.9091 -0.2624 0 -0.0001 42.0308 48.1088 -1.7065 5.8329 -49.266 -9.9802 9.3607 -64.4749 7.4492 2.2815 -40.0847 1.4819 -0.2356 -27.1089 -0.1246 0.1499 -26.1265 -8.3713 0.7027 -27.4525 0.3734 0.1287 -24.535 -8.1071 -3.3674 -23.0923 -0.4837 -2.3746 -10.9592 4.9168 -0.0027 0 -2.2219 0.0434 0.0001 0.2289 -0.0106 13.8366 1.341 0.1055 0 0 -13.2362 58.5597 31.716 0.2484 -0.001 0 0.0892 8.1616 -56.0431 0.2623 0 0 -37.5615 -17.8612 -10.7638 5.9453 49.4099 9.9904 10.0253 64.8315 -8.0049 2.3885 40.4163 -1.722 -0.2707 27.8889 0.1447 -0.0989 26.6551 7.4126 0.2819 28.3256 -0.2205 0.0081 24.4831 7.1764 -3.6695 23.6907 0.6002 -5.8881 7.1213 6.7906 0.0004 0 -2.4788 -0.1151 0 -0.016 -7.538 2.6391 -3.9492 0 0 -0.4175 46.6317 -1.4178 0.6111 -36.2945 -0.9678 -2.0882 0 -0.1047 -0.0836 -0.0089 -0.0168 0.01 0.1151 0 -0.016 -32.6593 -1.526 0.1252 0 0 -0.4175 79.2124 1.3333 -1.1095 -14.942 -0.5372 1.4258 0 -0.1047 -0.0836 -29.0368 0.0153 0.0023 
-0.4314 0.2933 0.8971 -1.096 2.3503 -52.6088 0 0 0.0999 -0.0869 0.3675 1.1063 0 -0.0001 0.1524 1.0451 0.3716 1.2361 0 0.0001 0.2938 9.5277 -0.6507 1.9073 -15.017 0.8243 1.9781 -0.0433 0.0001 0.2426 -1.6606 -5.9082 5.2948 -0.1055 0 0 -10.5079 -11.3851 44.7094 -0.2477 0 -0.0001 -28.2866 20.3648 88.7149 -0.2624 0 -0.0001 41.2587 49.2535 -2.5834 5.8331 -49.2831 -9.9973 9.4099 -64.5492 7.4936 2.294 -40.1504 1.5432 -0.2332 -27.2135 -0.1235 0.1039 -26.2822 -8.2153 0.692 -27.6038 0.3684 0.115 -24.5099 -7.8716 -3.3913 -23.1896 -0.4931 -2.2423 -11.0506 4.7916 -0.0028 0 -2.4275 0.0434 0.0001 0.2289 -0.0132 13.8365 1.3204 0.1055 0 0 -13.2421 58.6959 31.5722 0.2484 -0.001 0 0.0655 8.1955 -55.9201 0.2623 0 0 -37.655 -17.8968 -10.8397 5.9454 49.411 9.9908 10.0274 64.8346 -8.0069 2.3889 40.4188 -1.7236 -0.2706 27.8946 0.1446 -0.1 26.6592 7.4084 0.2815 28.332 -0.2203 0.0077 24.4829 7.1704 -3.6706 23.6953 0.6007 -5.888 7.1213 6.7906 0.0004 0 -2.4788 -0.1151 0 -0.016 -7.6277 2.7403 -3.9237 0 0 -0.4175 46.7061 -1.3997 0.6043 -36.3151 -1.0371 -2.0841 0 -0.1047 -0.0836 0.0009 -0.0303 0.0177 0.1151 0 -0.016 -30.0041 -2.1849 0.4872 0 0 -0.4175 74.576 1.7867 -1.3684 -17.4286 -0.5411 1.8342 0 -0.1047 -0.0836 -24.5799 0.0357 0.0085 
-0.429 0.2923 0.8973 -1.1129 2.2456 -52.6601 0 0 0.0999 -0.0797 0.3709 1.0698 0 -0.0001 0.1524 1.0502 0.3756 1.1948 0 0.0001 0.2938 9.5523 -0.7171 1.9175 -14.9221 0.7353 1.9856 -0.0433 0.0001 0.2427 -1.9284 -5.7338 4.531 -0.1055 0 0 -10.8466 -10.4205 43.9623 -0.2477 0 -0.0001 -29.233 21.3726 86.4821 -0.2624 0 -0.0001 39.1827 50.2955 -4.2908 5.8315 -49.28 -10.002 9.4176 -64.5607 7.5005 2.297 -40.1626 1.5639 -0.2333 -27.2112 -0.1236 0.0888 -26.3338 -8.1644 0.6907 -27.6226 0.3678 0.112 -24.497 -7.7929 -3.3928 -23.1961 -0.4937 -2.1899 -11.0906 4.8113 -0.0028 0 -2.4713 0.0434 0.0001 0.2288 -0.019 13.8364 1.2755 0.1055 0 0 -13.2292 58.9825 31.2791 0.2484 -0.001 0 0.0642 8.2645 -55.7777 0.2623 0 0 -37.7379 -18.0402 -10.9228 5.9455 49.4116 9.9911 10.0285 64.8361 -8.0079 2.3891 40.4201 -1.7244 -0.2705 27.8975 0.1446 -0.1006 26.6613 7.4062 0.2812 28.3354 -0.2202 0.0074 24.4827 7.1672 -3.6712 23.6977 0.6009 -5.888 7.1213 6.7905 0.0004 0 -2.4788 -0.1151 0 -0.016 -7.8583 2.9676 -3.8665 0 0 -0.4175 46.8112 -1.3538 0.5858 -36.2588 -1.2171 -2.0646 0 -0.1047 -0.0836 0.0063 -0.0401 0.0234 0.1151 0 -0.016 -27.8116 -2.5748 0.8695 0 0 -0.4175 70.7607 2.0461 -1.4606 -19.6877 -0.5298 2.0525 0 -0.1047 -0.0836 -20.7486 0.0263 0.0125 
